<svg width="405" height="72" viewBox="0 0 405 72" fill="none" xmlns="http://www.w3.org/2000/svg">
<path d="M388 36L405 36" stroke="#D0D0D8"/>
<path d="M0 36L17 36" stroke="#D0D0D8"/>
<path d="M38.7172 5.28344C40.8781 2.28016 44.3521 0.5 48.052 0.5H356.948C360.648 0.5 364.122 2.28016 366.283 5.28344L388.384 36L366.283 66.7166C364.122 69.7198 360.648 71.5 356.948 71.5H48.052C44.3521 71.5 40.8781 69.7198 38.7172 66.7166L16.616 36L38.7172 5.28344Z" fill="white" stroke="#D0D0D8"/>
<path d="M52.0662 43.5L53.2665 39.9134H58.7353L59.9426 43.5H62.7551L57.6273 28.9545H54.3745L49.2537 43.5H52.0662ZM53.9767 37.7969L55.9441 31.9375H56.0577L58.025 37.7969H53.9767Z" fill="#FF8B37"/>
<path d="M75.5227 28.9545H73.7614V43.5H75.5227V28.9545ZM80.5032 36.9375C80.5032 35.0341 81.6822 33.9545 83.2873 33.9545C84.8427 33.9545 85.7873 34.9702 85.7873 36.6818V43.5H87.4634V36.5682C87.4634 33.7841 85.979 32.4489 83.7702 32.4489C82.1225 32.4489 81.0998 33.1875 80.5884 34.2955H80.4464V32.5909H78.8271V43.5H80.5032V36.9375ZM93.7365 43.7557C95.6399 43.7557 96.6342 42.733 96.9751 42.0227H97.0604V43.5H98.7365V36.3125C98.7365 32.8466 96.0945 32.4489 94.7024 32.4489C93.0547 32.4489 91.1797 33.017 90.3274 35.0057L91.9183 35.5739C92.2876 34.7784 93.1612 33.9261 94.7592 33.9261C96.3004 33.9261 97.0604 34.7429 97.0604 36.142V36.1989C97.0604 37.0085 96.2365 36.9375 94.2479 37.1932C92.2237 37.456 90.0149 37.9034 90.0149 40.4034C90.0149 42.5341 91.6626 43.7557 93.7365 43.7557ZM93.9922 42.25C92.657 42.25 91.6911 41.6534 91.6911 40.4886C91.6911 39.2102 92.8558 38.8125 94.1626 38.642C94.8729 38.5568 96.7763 38.358 97.0604 38.017V39.5511C97.0604 40.9148 95.9808 42.25 93.9922 42.25ZM106.228 43.7273C108.642 43.7273 110.233 42.25 110.517 40.3182H108.841C108.529 41.5114 107.534 42.2216 106.228 42.2216C104.239 42.2216 102.961 40.5739 102.961 38.0455C102.961 35.5739 104.267 33.9545 106.228 33.9545C107.705 33.9545 108.586 34.8636 108.841 35.858H110.517C110.233 33.8125 108.5 32.4489 106.199 32.4489C103.245 32.4489 101.284 34.7784 101.284 38.1023C101.284 41.3693 103.159 43.7273 106.228 43.7273ZM117.712 32.5909H115.382V29.9773H113.706V32.5909H112.059V34.0114H113.706V40.8295C113.706 42.733 115.24 43.642 116.661 43.642C117.286 43.642 117.684 43.5284 117.911 43.4432L117.57 41.9375C117.428 41.9659 117.201 42.0227 116.831 42.0227C116.093 42.0227 115.382 41.7955 115.382 40.375V34.0114H117.712V32.5909ZM120.233 43.5H121.909V32.5909H120.233V43.5ZM121.086 30.7727C121.739 30.7727 122.279 30.2614 122.279 29.6364C122.279 29.0114 121.739 28.5 121.086 28.5C120.432 28.5 119.892 29.0114 119.892 29.6364C119.892 30.2614 120.432 30.7727 121.086 30.7727ZM133.9 32.5909H132.082L129.07 41.2841H128.957L125.945 32.5909H124.127L128.161 43.5H129.866L133.9 32.5909ZM140.295 43.7273C142.511 43.7273 144.131 42.6193 144.642 40.9716L143.023 40.517C142.597 41.6534 141.609 42.2216 140.295 42.2216C138.328 42.2216 136.972 40.9503 136.893 38.6136H144.812V37.9034C144.812 33.8409 142.398 32.4489 140.125 32.4489C137.17 32.4489 135.21 34.7784 135.21 38.1307C135.21 41.483 137.142 43.7273 140.295 43.7273ZM136.893 37.1648C137.007 35.4673 138.207 33.9545 140.125 33.9545C141.943 33.9545 143.108 35.3182 143.108 37.1648H136.893Z" fill="#1C1C21"/>
</svg>
