<svg width="376" height="40" viewBox="0 0 376 40" fill="none" xmlns="http://www.w3.org/2000/svg">
<path d="M69 20H0" stroke="#D0D0D8"/>
<path d="M376 20H307" stroke="#D0D0D8"/>
<path d="M81.4526 4.63788C83.6376 2.01596 86.8742 0.5 90.2872 0.5H285.713C289.126 0.5 292.362 2.01597 294.547 4.63788L307.349 20L294.547 35.3621C292.362 37.984 289.126 39.5 285.713 39.5H90.2872C86.8742 39.5 83.6376 37.984 81.4526 35.3621L68.6509 20L81.4526 4.63788Z" fill="white" stroke="#D0D0D8"/>
<path d="M140.856 28.8182H142.021V27.2344C145.004 27.0284 146.68 25.267 146.68 23.0511C146.68 20.3239 144.095 19.4432 142.589 19.0455L142.021 18.8892V13.8395C143.526 13.9886 144.62 14.7983 144.776 16.0909H146.481C146.41 14.017 144.592 12.4403 142.021 12.2699V10.6364H140.856V12.2912C138.42 12.5398 136.595 14.0881 136.595 16.3182C136.595 18.2784 138.015 19.4432 140.288 20.0966L140.856 20.2599V25.6364C139.365 25.4801 138.143 24.7131 138.015 23.25H136.197C136.36 25.4872 138.065 27.0497 140.856 27.2344V28.8182ZM142.021 25.6364V20.5938L142.078 20.608C143.612 21.0341 144.975 21.5739 144.975 23.0227C144.975 24.4503 143.74 25.4446 142.021 25.6364ZM140.856 18.5767C139.776 18.2713 138.299 17.6747 138.299 16.233C138.299 15.0043 139.294 14.0668 140.856 13.8608V18.5767ZM154.434 12.4545H152.672L149.036 14.8693V16.6591L152.587 14.3011H152.672V27H154.434V12.4545ZM160.286 25.0114H158.468L158.383 25.8068C158.177 27.7315 157.772 29.6491 157.587 30.5511H158.866C159.206 29.5852 159.931 27.3977 160.172 25.7784L160.286 25.0114ZM167.6 27.1989C170.81 27.1989 172.656 24.4787 172.656 19.7273C172.656 15.0114 170.781 12.2557 167.6 12.2557C164.418 12.2557 162.543 15.0114 162.543 19.7273C162.543 24.4787 164.389 27.1989 167.6 27.1989ZM167.6 25.6364C165.483 25.6364 164.247 23.5128 164.247 19.7273C164.247 15.9489 165.497 13.7898 167.6 13.7898C169.702 13.7898 170.952 15.9489 170.952 19.7273C170.952 23.5128 169.716 25.6364 167.6 25.6364ZM180.1 27.1989C183.31 27.1989 185.156 24.4787 185.156 19.7273C185.156 15.0114 183.281 12.2557 180.1 12.2557C176.918 12.2557 175.043 15.0114 175.043 19.7273C175.043 24.4787 176.889 27.1989 180.1 27.1989ZM180.1 25.6364C177.983 25.6364 176.747 23.5128 176.747 19.7273C176.747 15.9489 177.997 13.7898 180.1 13.7898C182.202 13.7898 183.452 15.9489 183.452 19.7273C183.452 23.5128 182.216 25.6364 180.1 25.6364ZM192.6 27.1989C195.81 27.1989 197.656 24.4787 197.656 19.7273C197.656 15.0114 195.781 12.2557 192.6 12.2557C189.418 12.2557 187.543 15.0114 187.543 19.7273C187.543 24.4787 189.389 27.1989 192.6 27.1989ZM192.6 25.6364C190.483 25.6364 189.247 23.5128 189.247 19.7273C189.247 15.9489 190.497 13.7898 192.6 13.7898C194.702 13.7898 195.952 15.9489 195.952 19.7273C195.952 23.5128 194.716 25.6364 192.6 25.6364ZM202.376 25.0114H200.558L200.472 25.8068C200.267 27.7315 199.862 29.6491 199.677 30.5511H200.955C201.296 29.5852 202.021 27.3977 202.262 25.7784L202.376 25.0114ZM209.689 27.1989C212.9 27.1989 214.746 24.4787 214.746 19.7273C214.746 15.0114 212.871 12.2557 209.689 12.2557C206.508 12.2557 204.633 15.0114 204.633 19.7273C204.633 24.4787 206.479 27.1989 209.689 27.1989ZM209.689 25.6364C207.573 25.6364 206.337 23.5128 206.337 19.7273C206.337 15.9489 207.587 13.7898 209.689 13.7898C211.792 13.7898 213.042 15.9489 213.042 19.7273C213.042 23.5128 211.806 25.6364 209.689 25.6364ZM222.189 27.1989C225.4 27.1989 227.246 24.4787 227.246 19.7273C227.246 15.0114 225.371 12.2557 222.189 12.2557C219.008 12.2557 217.133 15.0114 217.133 19.7273C217.133 24.4787 218.979 27.1989 222.189 27.1989ZM222.189 25.6364C220.073 25.6364 218.837 23.5128 218.837 19.7273C218.837 15.9489 220.087 13.7898 222.189 13.7898C224.292 13.7898 225.542 15.9489 225.542 19.7273C225.542 23.5128 224.306 25.6364 222.189 25.6364ZM234.689 27.1989C237.9 27.1989 239.746 24.4787 239.746 19.7273C239.746 15.0114 237.871 12.2557 234.689 12.2557C231.508 12.2557 229.633 15.0114 229.633 19.7273C229.633 24.4787 231.479 27.1989 234.689 27.1989ZM234.689 25.6364C232.573 25.6364 231.337 23.5128 231.337 19.7273C231.337 15.9489 232.587 13.7898 234.689 13.7898C236.792 13.7898 238.042 15.9489 238.042 19.7273C238.042 23.5128 236.806 25.6364 234.689 25.6364Z" fill="#1C1C21"/>
</svg>
